<svg xmlns="http://www.w3.org/2000/svg" viewBox="0 0 1200 675" role="img" aria-label="湖泊与水循环">
  <rect width="1200" height="675" fill="#dff2f4"/>
  <circle cx="980" cy="105" r="58" fill="#f1bf55"/>
  <path d="M0 305c130-75 268-104 422-67 113 28 191 8 294-39 142-64 300-49 484 24v452H0z" fill="#6fa878"/>
  <path d="M0 390c172-54 328-52 466 5 135 56 285 55 433-3 96-37 194-45 301-16v299H0z" fill="#4f95aa"/>
  <path d="M0 457c163-37 311-35 444 9 162 53 325 51 489-6 92-32 181-40 267-23v238H0z" fill="#3c839c"/>
  <path d="M170 170h170M252 112v170" stroke="#6ab7c1" stroke-width="18" stroke-linecap="round" opacity=".55"/>
  <path d="M690 96c-48 0-88 28-105 68-18-10-42-14-65-8-43 11-70 49-66 91h360c7-75-50-151-124-151z" fill="#fff" opacity=".86"/>
  <path d="M244 510c112-36 235-36 356 0M666 518c89-28 182-29 278-2" fill="none" stroke="#c8edf2" stroke-width="14" stroke-linecap="round" opacity=".72"/>
</svg>
